:SAMPLES-PER-SECOND 30
:FULLY-SPECIFIED
:DEGREES
461
root  -15.3628 34.7273 -8.27085 -170.215 0.0387573 179.755
RightUpLeg  -9.57923 -9.80272 1.74393
RightLeg  5.90368 2.03098 0.0798218
RightFoot  3.88993 0.00450437 0.260499
RightToes  -24.0479 -0.10987 -0.214334
Spine  -2.04845 0.30762 -0.406793
Spine1  -4.17715 0.696408 -0.173896
HEad  -66.0718 -0.128588 6.12854
LeftShoulder1  -1.94126e-019 -3.10601e-018 -2.51263e-017
LeftArm  -10.3754 24.5659 -81.9658
LeftForeArm  31.2096 -17.1734 -2.80501
LeftHand  -0.493938 -2.55163 7.44762
RightShoulder  -4.96962e-017 0 -2.36833e-017
RightArm  -20.9878 -23.0022 79.7721
RightForeArm  54.3376 15.0298 1.15578
RightHand  -0.50157 -0.54771 -12.0348
LeftUpLeg  -9.47646 -5.70345 -0.918514
LeftLeg  6.76247 12.9993 0.692662
LeftFoot  2.96261 -0.020544 0.835613
LeftToes  -15.0818 1.31424e-006 1.14295e-007
462
root  -15.3662 34.7254 -8.28292 -170.195 0.020813 179.751
RightUpLeg  -9.5833 -9.88623 1.73923
RightLeg  5.90713 2.09279 0.0823463
RightFoot  3.88111 0.00450711 0.26046
RightToes  -24.081 -0.10987 -0.214334
Spine  -2.03778 0.308984 -0.400166
Spine1  -4.15588 0.690264 -0.161278
HEad  -66.0973 -0.0943832 6.19112
LeftShoulder1  -1.94126e-019 -3.10601e-018 -2.51263e-017
LeftArm  -10.4826 24.5839 -81.9948
LeftForeArm  31.2402 -17.1729 -2.80094
LeftHand  -0.494025 -2.55674 7.43419
RightShoulder  -4.96962e-017 0 -2.36833e-017
RightArm  -21.055 -23.0091 79.7504
RightForeArm  54.3009 15.0493 1.15001
RightHand  -0.49902 -0.538248 -12.1105
LeftUpLeg  -9.49053 -5.67263 -0.928002
LeftLeg  6.78191 12.9553 0.694723
LeftFoot  2.95228 -0.0202323 0.830768
LeftToes  -15.0946 1.31424e-006 1.14295e-007
463
root  -15.3703 34.7242 -8.2917 -170.18 0.0088501 179.748
RightUpLeg  -9.58564 -9.8698 1.74182
RightLeg  5.917 2.05674 0.0813008
RightFoot  3.8562 0.00450578 0.260479
RightToes  -24.0555 -0.10987 -0.214334
Spine  -2.03072 0.309924 -0.39508
Spine1  -4.14179 0.687944 -0.151654
HEad  -66.102 -0.100314 6.22249
LeftShoulder1  -1.94126e-019 -3.10601e-018 -2.51263e-017
LeftArm  -10.5268 24.6002 -82.0236
LeftForeArm  31.2169 -17.1972 -2.80305
LeftHand  -0.493072 -2.48828 7.42661
RightShoulder  -4.96962e-017 0 -2.36833e-017
RightArm  -21.0828 -23.0152 79.7311
RightForeArm  54.3072 15.0532 1.14744
RightHand  -0.499103 -0.549565 -12.1101
LeftUpLeg  -9.49845 -5.66345 -0.935425
LeftLeg  6.79476 12.9262 0.696069
LeftFoot  2.91359 -0.0195538 0.820222
LeftToes  -15.0049 1.31424e-006 1.14295e-007
464
root  -15.3719 34.7236 -8.30404 -170.15 0.0045929 179.747
RightUpLeg  -9.5842 -9.9489 1.73794
RightLeg  5.89026 2.12371 0.0829206
RightFoot  3.86155 0.00450104 0.260547
RightToes  -24.0516 -0.10987 -0.214334
Spine  -2.02464 0.310492 -0.389652
Spine1  -4.12965 0.686722 -0.141418
HEad  -66.1612 -0.0989976 6.26201
LeftShoulder1  -1.94126e-019 -3.10601e-018 -2.51263e-017
LeftArm  -10.5676 24.6191 -82.062
LeftForeArm  31.2249 -17.1992 -2.80113
LeftHand  -0.493685 -2.57901 7.42087
RightShoulder  -4.96962e-017 0 -2.36833e-017
RightArm  -21.1496 -23.0156 79.7145
RightForeArm  54.3357 15.0345 1.1504
RightHand  -0.500303 -0.566758 -12.0779
LeftUpLeg  -9.50833 -5.73234 -0.939403
LeftLeg  6.79741 12.9925 0.700181
LeftFoot  2.92336 -0.0198249 0.824436
LeftToes  -15.0189 1.31424e-006 1.14295e-007
465
root  -15.3745 34.7232 -8.31648 -170.116 -0.00857544 179.747
RightUpLeg  -9.5884 -10.0061 1.73469
RightLeg  5.87654 2.14749 0.0833221
RightFoot  3.8112 0.00449358 0.260653
RightToes  -23.8087 -0.10987 -0.214334
Spine  -2.02281 0.310744 -0.384023
Spine1  -4.12638 0.686534 -0.131338
HEad  -66.2759 -0.127253 6.29784
LeftShoulder1  -1.94126e-019 -3.10601e-018 -2.51263e-017
LeftArm  -10.6389 24.6126 -82.1134
LeftForeArm  31.2461 -17.152 -2.79311
LeftHand  -0.492199 -2.49531 7.41486
RightShoulder  -4.96962e-017 0 -2.36833e-017
RightArm  -21.2124 -23.0141 79.6998
RightForeArm  54.3693 14.9963 1.15876
RightHand  -0.498268 -0.606594 -12.1331
LeftUpLeg  -9.52545 -5.82184 -0.941129
LeftLeg  6.79844 13.0738 0.704725
LeftFoot  2.92804 -0.0202669 0.831305
LeftToes  -14.9197 1.31424e-006 1.14295e-007
466
root  -15.3787 34.7229 -8.33044 -170.084 -0.0170135 179.747
RightUpLeg  -9.59465 -10.0202 1.73236
RightLeg  5.86315 2.14838 0.0828525
RightFoot  3.82144 0.00448407 0.260789
RightToes  -23.7607 -0.10987 -0.214334
Spine  -2.02123 0.310732 -0.377265
Spine1  -4.13254 0.687311 -0.118624
HEad  -66.3251 -0.156685 6.27894
LeftShoulder1  -1.94126e-019 -3.10601e-018 -2.51263e-017
LeftArm  -10.6855 24.6114 -82.1654
LeftForeArm  31.2683 -17.1135 -2.78927
LeftHand  -0.493419 -2.67479 7.41855
RightShoulder  -4.96962e-017 0 -2.36833e-017
RightArm  -21.2895 -23.0126 79.6926
RightForeArm  54.3953 14.96 1.16722
RightHand  -0.498347 -0.639241 -12.1304
LeftUpLeg  -9.53287 -5.84476 -0.93884
LeftLeg  6.78793 13.0928 0.703344
LeftFoot  2.92981 -0.0204076 0.833493
LeftToes  -14.8442 1.31424e-006 1.14295e-007
467
root  -15.3812 34.7227 -8.33908 -170.058 -0.0285797 179.747
RightUpLeg  -9.60065 -9.99291 1.7311
RightLeg  5.85261 2.10779 0.0809177
RightFoot  3.8252 0.00447318 0.260945
RightToes  -23.7405 -0.10987 -0.214334
Spine  -2.0197 0.310511 -0.37148
Spine1  -4.12762 0.690527 -0.107555
HEad  -66.4506 -0.148029 6.31801
LeftShoulder1  -1.94126e-019 -3.10601e-018 -2.51263e-017
LeftArm  -10.718 24.5869 -82.2167
LeftForeArm  31.1915 -17.2276 -2.80822
LeftHand  -0.491399 -2.52126 7.39288
RightShoulder  -4.96962e-017 0 -2.36833e-017
RightArm  -21.3419 -23.0037 79.6933
RightForeArm  54.4195 14.942 1.17129
RightHand  -0.497891 -0.651717 -12.1451
LeftUpLeg  -9.5404 -5.88812 -0.938488
LeftLeg  6.77412 13.1153 0.702104
LeftFoot  2.93865 -0.0204785 0.834594
LeftToes  -14.7734 1.31424e-006 1.14295e-007
468
root  -15.3849 34.7226 -8.34783 -170.042 -0.0393219 179.747
RightUpLeg  -9.61122 -9.97497 1.72774
RightLeg  5.86782 2.05853 0.0795982
RightFoot  3.80554 0.00446159 0.261111
RightToes  -23.7106 -0.10987 -0.214334
Spine  -2.0186 0.310134 -0.364794
Spine1  -4.11701 0.697199 -0.0947588
HEad  -66.5415 -0.0927842 6.25465
LeftShoulder1  -1.94126e-019 -3.10601e-018 -2.51263e-017
LeftArm  -10.6819 24.5583 -82.2564
LeftForeArm  31.2401 -17.3224 -2.82143
LeftHand  -0.491751 -2.62263 7.39403
RightShoulder  -4.96962e-017 0 -2.36833e-017
RightArm  -21.358 -22.9744 79.7062
RightForeArm  54.4503 14.9416 1.17114
RightHand  -0.49975 -0.606258 -12.1024
LeftUpLeg  -9.54662 -5.90542 -0.937918
LeftLeg  6.77807 13.1259 0.702476
LeftFoot  2.94417 -0.0204943 0.83484
LeftToes  -14.7867 1.31424e-006 1.14295e-007
469
root  -15.3874 34.7226 -8.35369 -170.033 -0.0488281 179.747
RightUpLeg  -9.60935 -9.96634 1.72357
RightLeg  5.86928 2.04852 0.0792687
RightFoot  3.78939 0.00444996 0.261277
RightToes  -23.711 -0.10987 -0.214334
Spine  -2.01829 0.309656 -0.361291
Spine1  -4.11742 0.703124 -0.0876188
HEad  -66.6025 -0.0770612 6.2214
LeftShoulder1  -1.94126e-019 -3.10601e-018 -2.51263e-017
LeftArm  -10.6572 24.521 -82.2756
LeftForeArm  31.2594 -17.3908 -2.83209
LeftHand  -0.490171 -2.62355 7.43669
RightShoulder  -4.96962e-017 0 -2.36833e-017
RightArm  -21.3417 -22.9655 79.7177
RightForeArm  54.4228 14.9504 1.16881
RightHand  -0.499854 -0.589145 -12.1051
LeftUpLeg  -9.54489 -5.92084 -0.941837
LeftLeg  6.77493 13.1281 0.702253
LeftFoot  2.92452 -0.02047 0.834462
LeftToes  -14.7361 1.31424e-006 1.14295e-007
470
root  -15.3907 34.7227 -8.35926 -170.024 -0.057373 179.747
RightUpLeg  -9.60618 -9.9788 1.7189
RightLeg  5.86483 2.03754 0.0801027
RightFoot  3.78599 0.00443897 0.261434
RightToes  -23.7161 -0.10987 -0.214334
Spine  -2.01987 0.309129 -0.356564
Spine1  -4.12043 0.706677 -0.0779487
HEad  -66.599 -0.0596301 6.21048
LeftShoulder1  -1.94126e-019 -3.10601e-018 -2.51263e-017
LeftArm  -10.6473 24.4872 -82.2886
LeftForeArm  31.2888 -17.4659 -2.84354
LeftHand  -0.490491 -2.6073 7.38305
RightShoulder  -4.96962e-017 0 -2.36833e-017
RightArm  -21.3155 -22.9578 79.7294
RightForeArm  54.4427 14.9703 1.16378
RightHand  -0.499764 -0.577009 -12.1127
LeftUpLeg  -9.54217 -5.91133 -0.947855
LeftLeg  6.76722 13.1166 0.699893
LeftFoot  2.91532 -0.0204204 0.833692
LeftToes  -14.6143 1.31424e-006 1.14295e-007
471
root  -15.3956 34.723 -8.36932 -170.012 -0.0753174 179.747
RightUpLeg  -9.58669 -9.98627 1.70947
RightLeg  5.84492 2.05224 0.0785354
RightFoot  3.79195 0.00442929 0.261572
RightToes  -23.6913 -0.10987 -0.214334
Spine  -2.02992 0.308608 -0.349396
Spine1  -4.14033 0.712889 -0.0631398
HEad  -66.5334 -0.0196552 6.16418
LeftShoulder1  -1.94126e-019 -3.10601e-018 -2.51263e-017
LeftArm  -10.5906 24.4473 -82.3076
LeftForeArm  31.3103 -17.6484 -2.87083
LeftHand  -0.491672 -2.68383 7.3475
RightShoulder  -4.96962e-017 0 -2.36833e-017
RightArm  -21.2646 -22.9301 79.7547
RightForeArm  54.4661 14.9963 1.15727
RightHand  -0.50103 -0.559929 -12.083
LeftUpLeg  -9.52911 -5.90105 -0.956746
LeftLeg  6.74412 13.0783 0.692645
LeftFoot  2.91627 -0.0203605 0.83276
LeftToes  -14.6911 1.31424e-006 1.14295e-007
472
root  -15.3983 34.7233 -8.3752 -170.005 -0.0777283 179.746
RightUpLeg  -9.57122 -10.0298 1.70434
RightLeg  5.81429 2.07454 0.0782654
RightFoot  3.79269 0.00442161 0.261682
RightToes  -23.7506 -0.10987 -0.214334
Spine  -2.04044 0.308147 -0.345327
Spine1  -4.1611 0.713365 -0.0544143
HEad  -66.4703 -0.0449885 6.1472
LeftShoulder1  -1.94126e-019 -3.10601e-018 -2.51263e-017
LeftArm  -10.5443 24.4363 -82.3133
LeftForeArm  31.2997 -17.7126 -2.88213
LeftHand  -0.48903 -2.58938 7.41258
RightShoulder  -4.96962e-017 0 -2.36833e-017
RightArm  -21.2082 -22.9198 79.7646
RightForeArm  54.4652 14.9997 1.15641
RightHand  -0.500979 -0.532422 -12.0914
LeftUpLeg  -9.51756 -5.8571 -0.964879
LeftLeg  6.72359 13.0431 0.686167
LeftFoot  2.92695 -0.020305 0.831898
LeftToes  -14.7165 1.31424e-006 1.14295e-007
473
root  -15.3992 34.7237 -8.38297 -169.986 -0.0849762 179.741
RightUpLeg  -9.5464 -10.0862 1.69887
RightLeg  5.75346 2.13423 0.0716108
RightFoot  3.80285 0.00441658 0.261754
RightToes  -23.7639 -0.10987 -0.214334
Spine  -2.06314 0.307799 -0.343498
Spine1  -4.20601 0.711432 -0.0401013
HEad  -66.4286 -0.063121 6.0959
LeftShoulder1  -1.94126e-019 -3.10601e-018 -2.51263e-017
LeftArm  -10.4014 24.4467 -82.2983
LeftForeArm  31.2029 -17.8242 -2.8988
LeftHand  -0.491406 -2.66846 7.34357
RightShoulder  -4.96962e-017 0 -2.36833e-017
RightArm  -21.0836 -22.9273 79.7743
RightForeArm  54.4328 15.033 1.14813
RightHand  -0.502383 -0.469396 -12.0638
LeftUpLeg  -9.49661 -5.85824 -0.973865
LeftLeg  6.66631 13.0409 0.673105
LeftFoot  2.9145 -0.020269 0.831337
LeftToes  -14.5819 1.31424e-006 1.14295e-007
